<?xml version="1.0" encoding="utf-8"?>
<!-- Generator: Adobe Illustrator 12.0.0, SVG Export Plug-In . SVG Version: 6.00 Build 51448)  -->
<!DOCTYPE svg PUBLIC "-//W3C//DTD SVG 1.1//EN" "http://www.w3.org/Graphics/SVG/1.1/DTD/svg11.dtd" [
	<!ENTITY ns_svg "http://www.w3.org/2000/svg">
	<!ENTITY ns_xlink "http://www.w3.org/1999/xlink">
]>
<svg  version="1.1" id="Calque_1" xmlns="&ns_svg;" xmlns:xlink="&ns_xlink;" width="258.323" height="192.728"
	 viewBox="0 0 258.323 192.728" overflow="visible" enable-background="new 0 0 258.323 192.728" xml:space="preserve">
<g>
	<rect x="0.5" y="1.482" fill="#FFFF69" stroke="#000000" width="255.556" height="190.277"/>
	<g>
		<g>
			<line fill="none" stroke="#000000" stroke-width="10" x1="26.964" y1="17.161" x2="26.964" y2="183.835"/>
			<line fill="none" stroke="#000000" stroke-width="11" x1="14.745" y1="173.419" x2="232.073" y2="175.022"/>
			<polygon fill="none" stroke="#000000" stroke-width="5" points="27.4,3.538 12.999,17.961 41.802,17.961 			"/>
		</g>
		<polygon fill="none" stroke="#000000" stroke-width="5" points="247.886,174.242 232.366,160.833 233.876,187.274 		"/>
	</g>
	<path fill="none" stroke="#F45E8D" stroke-width="5" d="M33.833,128.538c6.444-4.729,13.667-9.38,20.75-12.52
		c-0.146,5.939-1.851,11.922-4.286,17.411c1.337-1.727,2.686-2.209,4.065-3.453c3.337,24.204,21.415-3.34,26.51-10.545
		c0.283,16.512,1.71,26.522,14.176,9.638c1.802,15.916,8.766,26.727,16.634,6.933c-0.026,0.589-0.085,1.174-0.176,1.757
		c1.165-0.402,0.927-2.003,2.958-2.251c0.36,1.512,0.999,3.797,1.549,5.397c2.862-1.353,5.431-0.155,8.131-2.506
		c7.759,11.016,17.879-1.332,26.354-2.943c10.523-2,17.65,4.075,27.778-2.645c9.458,15.741,14.859-3.534,23.647-8.296
		c5.622,6.975,16.681,6.411,24.73,4.528c0.829,0.904,0.961,2.077,1.827,3.042c4.718-4.238,6.218-10.649,9.521-15.578
		c2.308,10.337,13.734,13.014,18.051,3.698"/>
	<path fill="none" stroke="#000000" stroke-width="5" d="M39.388,67.427c4.235,13.169,23.42,20.748,31.603,7.045
		c3.591,9.158,6.077-1.391,11.139,1.188c4.73,2.41,5.104,6.39,8.993,8.88c12.034,7.707,17.732,2.761,31.384-3.12
		c2.646,12.73,14.992-2.267,21.107-5.895c6.543,14.285,19.601,3.503,27.393-3.845c0.399,6.672,5.617,9.703,11.432,9.772
		c2.467-2.079,6.437-4.393,8.339-7.083"/>
	<path fill="none" stroke="#13919F" stroke-width="5" d="M46.333,22.983c4.781,9.262,30.1,15.058,35.768,3.578
		c5.493,11.08,17.393-0.275,25.411-1.737c2.899,12.355,19.809,3.626,27.748-0.005c5.293,12.563,18.586,5.05,23.839-3.114
		c9.184,3.85,24.3,5.818,30.214-3.862c3.462,2.536,7.219,3.355,9.799,5.141"/>
	<g>
		<rect x="43.555" y="51.316" fill="none" width="172.222" height="116.667"/>
		<path fill="#F7122C" stroke="#000000" stroke-width="0.5" d="M46.371,51.445h32.74l-9.807,9.338v73.059h0.566l2.547,0.229
			l0.637-0.023V61.464l7.424-7.43l0.957,1.5l-6.631,6.748v71.764c2.051,0.184,4.01,0.273,5.879,0.273
			c7.246,0,12.725-1.607,16.439-4.824c3.715-3.215,6.209-8.518,7.486-15.908c4.283,12.434,8.682,20.928,13.193,25.482H46.371
			l9.434-7.691V60.101L46.371,51.445z M124.424,138.513l-3.076,6.182H49.98l-1.709-1.875h72.324l1.982-4.307
			c-5.014-6.152-9.023-13.012-12.031-20.578l-0.273-0.752l2.188,0.82l0.479,1.162c3.053,6.746,6.699,12.969,10.938,18.664
			L124.424,138.513z"/>
		<path fill="#F7122C" stroke="#000000" stroke-width="0.5" d="M124.457,51.445h71.021c-2.826,3.723-4.844,6.652-6.051,8.785
			s-2.746,5.561-4.613,10.281l-0.547,1.361c-3.018-6.213-6-10.232-8.949-12.061s-7.92-2.742-14.912-2.742l-3.908,0.125l-6.65-0.068
			l-2.537-0.066v32.01h4.25V60.814l1.984-0.061c2.828-0.121,5.84-0.184,9.033-0.184c9.307,0,15.123,2.402,17.451,7.207
			c-2.232-2.137-4.658-3.58-7.277-4.33c-2.621-0.75-6.664-1.127-12.129-1.127c-1.961,0-4.398,0.113-7.313,0.336V89.07h10.318
			l10.932-11.598v28.672L163.082,94.82h-15.771v34.381l8.869,8.869h-33.637l11.143-8.869V99.869c-3.51,0-6.586,1.318-9.229,3.955
			l-1.299-1.432c2.643-2.91,6.152-4.365,10.527-4.365V94.82c-0.957-0.082-1.641-0.125-2.051-0.125
			c-4.238,0-7.908,1.725-11.006,5.174l-0.479-1.092c2.051-5.924,6.563-9.16,13.535-9.707V60.199L124.457,51.445z M167.324,100.57
			h-14.014v29.213l12.031,14.912h-39.621l-1.709-1.875h37.502l-9.953-12.217V98.695h13.781L167.324,100.57z M179.561,79.867v29.535
			l-1.875-1.025V78.843L179.561,79.867z M200.645,55.484c-6.518,7.627-10.619,14.613-12.305,20.961l-1.436-0.959
			c1.73-7.168,5.9-14.225,12.51-21.166L200.645,55.484z"/>
	</g>
</g>
</svg>
