<?xml version="1.0" encoding="UTF-8" standalone="no"?>
<!-- Generator: Adobe Illustrator 12.0.0, SVG Export Plug-In . SVG Version: 6.00 Build 51448)  -->

<svg
   xmlns:dc="http://purl.org/dc/elements/1.1/"
   xmlns:cc="http://creativecommons.org/ns#"
   xmlns:rdf="http://www.w3.org/1999/02/22-rdf-syntax-ns#"
   xmlns:svg="http://www.w3.org/2000/svg"
   xmlns="http://www.w3.org/2000/svg"
   xmlns:sodipodi="http://sodipodi.sourceforge.net/DTD/sodipodi-0.dtd"
   xmlns:inkscape="http://www.inkscape.org/namespaces/inkscape"
   version="1.1"
   id="Calque_1"
   width="258.323"
   height="192.728"
   viewBox="0 0 258.323 192.728"
   overflow="visible"
   enable-background="new 0 0 258.323 192.728"
   xml:space="preserve"
   inkscape:version="0.92.2 (unknown)"
   sodipodi:docname="mainImage.svg"
   inkscape:export-filename="/opt/workspace47/logfouineur/src/main/java/images/mainImage.png"
   inkscape:export-xdpi="96"
   inkscape:export-ydpi="96"><metadata
     id="metadata4171"><rdf:RDF><cc:Work
         rdf:about=""><dc:format>image/svg+xml</dc:format><dc:type
           rdf:resource="http://purl.org/dc/dcmitype/StillImage" /><dc:title /></cc:Work></rdf:RDF></metadata><defs
     id="defs4169" /><sodipodi:namedview
     pagecolor="#ffffff"
     bordercolor="#666666"
     borderopacity="1"
     objecttolerance="10"
     gridtolerance="10"
     guidetolerance="10"
     inkscape:pageopacity="0"
     inkscape:pageshadow="2"
     inkscape:window-width="1920"
     inkscape:window-height="1020"
     id="namedview4167"
     showgrid="false"
     inkscape:zoom="0.74976133"
     inkscape:cx="-31.869912"
     inkscape:cy="-40.585234"
     inkscape:window-x="0"
     inkscape:window-y="0"
     inkscape:window-maximized="1"
     inkscape:current-layer="g4183"
     inkscape:snap-text-baseline="false" /><g
     id="g4207"><g
       id="g4183"
       inkscape:export-xdpi="91.099998"
       inkscape:export-ydpi="91.099998"><g
         id="g4137"
         transform="matrix(2.2852441,0,0,1.7169802,-65.637046,-53.085887)"><rect
           x="2.8345563"
           y="1.482"
           width="255.556"
           height="190.27699"
           id="rect4139"
           style="fill:#ffff69;stroke:#000000" /><g
           id="g4141"><g
             id="g4143"><line
               x1="26.964001"
               y1="17.160999"
               x2="26.964001"
               y2="183.83501"
               id="line4145"
               style="fill:none;stroke:#000000;stroke-width:10" /><line
               x1="14.745"
               y1="173.41901"
               x2="232.073"
               y2="175.022"
               id="line4147"
               style="fill:none;stroke:#000000;stroke-width:11" /><polygon
               points="41.802,17.961 27.4,3.538 12.999,17.961 "
               id="polygon4149"
               style="fill:none;stroke:#000000;stroke-width:5" /></g><polygon
             points="233.876,187.274 247.886,174.242 232.366,160.833 "
             id="polygon4151"
             style="fill:none;stroke:#000000;stroke-width:5" /></g><path
           d="m 33.833,128.538 c 6.444,-4.729 13.667,-9.38 20.75,-12.52 -0.146,5.939 -1.851,11.922 -4.286,17.411 1.337,-1.727 2.686,-2.209 4.065,-3.453 3.337,24.204 21.415,-3.34 26.51,-10.545 0.283,16.512 1.71,26.522 14.176,9.638 1.802,15.916 8.766,26.727 16.634,6.933 -0.026,0.589 -0.085,1.174 -0.176,1.757 1.165,-0.402 0.927,-2.003 2.958,-2.251 0.36,1.512 0.999,3.797 1.549,5.397 2.862,-1.353 5.431,-0.155 8.131,-2.506 7.759,11.016 17.879,-1.332 26.354,-2.943 10.523,-2 17.65,4.075 27.778,-2.645 9.458,15.741 14.859,-3.534 23.647,-8.296 5.622,6.975 16.681,6.411 24.73,4.528 0.829,0.904 0.961,2.077 1.827,3.042 4.718,-4.238 6.218,-10.649 9.521,-15.578 2.308,10.337 13.734,13.014 18.051,3.698"
           id="path4153"
           inkscape:connector-curvature="0"
           style="fill:none;stroke:#015e8d;stroke-width:5;stroke-opacity:1" /><path
           d="m 39.388,67.427 c 4.235,13.169 23.42,20.748 31.603,7.045 3.591,9.158 6.077,-1.391 11.139,1.188 4.73,2.41 5.104,6.39 8.993,8.88 12.034,7.707 17.732,2.761 31.384,-3.12 2.646,12.73 14.992,-2.267 21.107,-5.895 6.543,14.285 19.601,3.503 27.393,-3.845 0.399,6.672 5.617,9.703 11.432,9.772 2.467,-2.079 6.437,-4.393 8.339,-7.083"
           id="path4155"
           inkscape:connector-curvature="0"
           style="fill:none;stroke:#000000;stroke-width:5" /><path
           d="m 46.333,22.983 c 4.781,9.262 30.1,15.058 35.768,3.578 5.493,11.08 17.393,-0.275 25.411,-1.737 2.899,12.355 19.809,3.626 27.748,-0.005 5.293,12.563 18.586,5.05 23.839,-3.114 9.184,3.85 24.3,5.818 30.214,-3.862 3.462,2.536 7.219,3.355 9.799,5.141"
           id="path4157"
           inkscape:connector-curvature="0"
           style="fill:none;stroke:#13919f;stroke-width:5" /><g
           id="g4159"><rect
             x="43.555"
             y="51.316002"
             width="172.222"
             height="116.667"
             id="rect4161"
             style="fill:none" /><path
             d="m 46.535834,31.304857 36.552679,0 -10.949057,11.349137 0,88.793806 0.631912,0 2.843607,0.27832 0.71118,-0.028 0,-88.216508 8.288549,-9.030209 1.068446,1.823057 -7.403201,8.201325 0,87.219905 c 2.289845,0.22363 4.476977,0.3318 6.563628,0.3318 8.08982,0 14.206868,-1.95311 18.353373,-5.86295 4.14763,-3.90742 6.93206,-10.35254 8.35777,-19.33413 4.78177,15.11193 9.69305,25.43529 14.72937,30.97009 l -79.748256,0 10.53262,-9.34742 0,-86.628019 -10.53262,-10.520254 z m 87.142526,105.819943 -3.43421,7.51343 -79.679037,0 -1.908018,-2.27882 80.746365,0 2.21281,-5.23461 c -5.5979,-7.47696 -10.07376,-15.81441 -13.43205,-25.00991 l -0.30479,-0.91396 2.4428,0.99661 0.53478,1.41226 c 3.40853,8.19889 7.47912,15.76215 12.21176,22.68369 l 0.60959,0.83131 z"
             id="path4163"
             inkscape:connector-curvature="0"
             style="fill:#f7122c;stroke:#000000;stroke-width:0.99383098;stroke-miterlimit:4;stroke-dasharray:none" /><path
             d="m 155.30082,34.390199 78.6679,0 c -3.13028,4.464547 -5.36556,7.976944 -6.70252,10.534794 -1.33695,2.557851 -3.04166,6.668639 -5.10968,12.328768 l -0.6059,1.632083 c -3.34295,-7.450504 -6.64602,-12.270007 -9.91255,-14.463307 -3.26652,-2.1933 -8.77275,-3.288151 -16.51759,-3.288151 l -4.32878,0.149898 -7.36601,-0.08154 -2.81016,-0.07915 0,38.385744 4.7076,0 0,-33.884024 2.19762,-0.07315 c 3.13249,-0.1451 6.4688,-0.220649 10.00559,-0.220649 10.3091,0 16.75131,2.88043 19.32997,8.642489 -2.47232,-2.562647 -5.15953,-4.293064 -8.06052,-5.192448 -2.90321,-0.899385 -7.38152,-1.351476 -13.43494,-1.351476 -2.17215,0 -4.87154,0.135507 -8.1004,0.402924 l 0,31.676334 11.42895,0 12.10906,-13.908087 0,34.382887 -12.71385,-13.579517 -17.46908,0 0,41.228999 9.82393,10.63553 -37.25873,0 12.34278,-10.63553 0,-35.17434 c -3.88792,0 -7.29512,1.580524 -10.22269,4.742761 l -1.43887,-1.717226 c 2.92758,-3.489618 6.81439,-5.234424 11.66045,-5.234424 l 0,-3.84577 c -1.06004,-0.09833 -1.81768,-0.149897 -2.27183,-0.149897 -4.69431,0 -8.75946,2.068585 -12.19103,6.204556 l -0.53057,-1.309504 c 2.27183,-7.103941 7.26964,-10.984487 14.99233,-11.640438 l 0,-34.621519 -10.22048,-10.49762 z m 47.48253,58.909706 -15.5229,0 0,35.031635 13.32639,17.88217 -43.88704,0 -1.89301,-2.24846 41.53988,0 -11.02465,-14.65038 0,-38.263427 15.26482,0 2.19651,2.248462 z m 13.55457,-24.826619 0,35.417774 -2.07688,-1.22916 0,-35.416574 2.07688,1.22796 z m 23.35414,-29.2396 C 232.47226,48.37983 227.9297,56.7573 226.06217,64.369693 l -1.59062,-1.150013 c 1.91627,-8.595721 6.53526,-17.058332 13.85697,-25.381839 l 1.36354,1.395845 z"
             id="path4165"
             inkscape:connector-curvature="0"
             style="fill:#f7122c;stroke:#000000;stroke-width:0.57625878" /></g></g><text
         xml:space="preserve"
         style="font-style:normal;font-weight:normal;line-height:0%;font-family:sans-serif;letter-spacing:0px;word-spacing:0px;fill:#000000;fill-opacity:1;stroke:none;stroke-width:1px;stroke-linecap:butt;stroke-linejoin:miter;stroke-opacity:1"
         x="-77.348404"
         y="306.77191"
         id="text4173"><tspan
           style="font-style:normal;font-variant:normal;font-weight:normal;font-stretch:normal;font-size:70px;line-height:1.25;font-family:'Cooper Black';-inkscape-font-specification:'Cooper Black, ';fill:#f00000;fill-opacity:1"
           sodipodi:role="line"
           id="tspan4175"
           x="-77.348404"
           y="306.77191"> </tspan><tspan
           style="font-style:normal;font-variant:normal;font-weight:normal;font-stretch:normal;font-size:70px;line-height:1.25;font-family:'Cooper Black';-inkscape-font-specification:'Cooper Black, ';fill:#f00000;fill-opacity:1"
           sodipodi:role="line"
           x="-77.348404"
           y="394.27191"
           id="tspan4253">LogFouineur V1.0</tspan><tspan
           style="font-style:normal;font-variant:normal;font-weight:normal;font-stretch:normal;font-size:40px;line-height:1.25;font-family:serif;-inkscape-font-specification:serif"
           sodipodi:role="line"
           x="-77.348404"
           y="455.22894"
           id="tspan4243">Author Jean-Louis PASTUREL</tspan><tspan
           style="font-style:normal;font-variant:normal;font-weight:normal;font-stretch:normal;font-size:40px;line-height:1.25;font-family:serif;-inkscape-font-specification:serif"
           sodipodi:role="line"
           x="-77.348404"
           y="505.22894"
           id="tspan4181">2017-2018</tspan><tspan
           style="font-style:normal;font-variant:normal;font-weight:normal;font-stretch:normal;font-size:40px;line-height:1.25;font-family:serif;-inkscape-font-specification:serif"
           sodipodi:role="line"
           x="-77.348404"
           y="555.22894"
           id="tspan4177">Licence : Apache 2</tspan><tspan
           sodipodi:role="line"
           x="-77.348404"
           y="605.22894"
           id="tspan4179"
           style="font-size:40px;line-height:1.25"> </tspan></text>
</g><rect
       y="-96.536446"
       x="-107.87334"
       height="691.89825"
       width="685.22943"
       id="rect4205"
       style="opacity:0.37099998;fill:#000000;fill-opacity:0;stroke:#ff0000;stroke-width:4.32203436;stroke-miterlimit:4;stroke-dasharray:none;stroke-opacity:1"
       inkscape:export-xdpi="91.099998"
       inkscape:export-ydpi="91.099998" /></g></svg>